<svg width="79" height="19" viewBox="0 0 79 19" fill="none" xmlns="http://www.w3.org/2000/svg">
<path d="M10.674 0.657999V4.48H5.318V7.366H10.388V11.188H5.318V14.178H10.674V18H0.82V0.657999H10.674ZM25.1887 18L24.1227 15.088H17.8307L16.6607 18H11.9027L18.5587 0.657999H23.4727L29.9987 18H25.1887ZM19.0787 11.656H22.9267L20.9767 6.04L19.0787 11.656ZM38.2917 18H31.9997V0.657999H37.9017C40.8484 0.657999 43.145 1.45533 44.7917 3.05C46.4037 4.59267 47.2097 6.69867 47.2097 9.368C47.2097 11.864 46.4557 13.866 44.9477 15.374C44.185 16.1367 43.2317 16.7693 42.0877 17.272C40.9437 17.7573 39.6784 18 38.2917 18ZM36.4977 4.48V14.178H37.4077C39.089 14.178 40.3544 13.762 41.2037 12.93C42.0877 12.0807 42.5297 10.8933 42.5297 9.368C42.5297 7.68667 42.079 6.42133 41.1777 5.572C40.3977 4.844 39.2017 4.48 37.5897 4.48H36.4977ZM60.761 18L59.695 15.088H53.403L52.233 18H47.475L54.131 0.657999H59.045L65.571 18H60.761ZM54.651 11.656H58.499L56.549 6.04L54.651 11.656ZM66.1318 16.44L68.0558 12.8C69.3038 13.9787 70.6298 14.568 72.0338 14.568C72.8311 14.568 73.4118 14.3687 73.7758 13.97C74.0705 13.6753 74.2178 13.3113 74.2178 12.878C74.2178 12.462 74.0531 12.1153 73.7238 11.838C73.4465 11.5953 72.7011 11.292 71.4878 10.928L70.3178 10.564C69.1565 10.2 68.3245 9.732 67.8218 9.16C67.1631 8.44933 66.8338 7.42667 66.8338 6.092C66.8338 4.35867 67.3625 2.96333 68.4198 1.906C69.5118 0.813999 70.9938 0.267999 72.8658 0.267999C74.6511 0.267999 76.4365 0.735999 78.2218 1.672L76.4278 5.182C75.4398 4.402 74.4518 4.012 73.4638 4.012C72.8398 4.012 72.3458 4.18533 71.9818 4.532C71.6871 4.82667 71.5398 5.13867 71.5398 5.468C71.5398 5.78 71.6178 6.04 71.7738 6.248C72.0165 6.54267 72.5191 6.80267 73.2818 7.028L74.6598 7.444C76.1158 7.89467 77.1645 8.46667 77.8058 9.16C78.5511 9.95733 78.9238 10.9887 78.9238 12.254C78.9238 14.074 78.3778 15.53 77.2858 16.622C76.1071 17.8007 74.3998 18.39 72.1638 18.39C70.9331 18.39 69.7978 18.1993 68.7578 17.818C67.8738 17.506 66.9985 17.0467 66.1318 16.44Z" fill="white"/>
</svg>
